<?xml version="1.0" encoding="UTF-8"?><!DOCTYPE svg PUBLIC "-//W3C//DTD SVG 1.1//EN" "http://www.w3.org/Graphics/SVG/1.1/DTD/svg11.dtd"><svg xmlns="http://www.w3.org/2000/svg" xmlns:xlink="http://www.w3.org/1999/xlink"><symbol id="chevron" viewBox="0 0 13 39"><path d="M12.532 17.57L2.726.8C2.102-.267 1.091-.267.468.8c-.624 1.067-.624 2.796 0 3.862L9.144 19.5.468 34.338c-.624 1.066-.624 2.796 0 3.862.623 1.067 1.635 1.067 2.259 0l9.806-16.77c.311-.533.467-1.23.467-1.93 0-.699-.156-1.398-.468-1.93z" fill="#C99655"/></symbol><symbol id="close" viewBox="0 0 15.642 15.642"><path fill-rule="evenodd" d="M8.882 7.821l6.541-6.541A.75.75 0 1 0 14.362.219L7.821 6.76 1.28.22A.75.75 0 1 0 .219 1.281L6.76 7.822l-6.54 6.54a.75.75 0 0 0 1.06 1.061l6.541-6.541 6.541 6.541a.75.75 0 1 0 1.06-1.061l-6.54-6.541z"/></symbol><symbol id="shopping-bag" viewBox="0 0 50 48"><path d="M49.692 8.947a1.605 1.605 0 0 0-1.296-.658H12.3c-.07 0-.14.004-.207.013L10.607 4.02a1.606 1.606 0 0 0-.929-.968L2.192.112a1.605 1.605 0 0 0-1.174 2.987l6.8 2.67 8.322 23.99c-.367.128-.678.41-.82.805l-2.406 6.684a1.335 1.335 0 0 0 1.257 1.79h1.236a4.784 4.784 0 0 0-1.236 3.208 4.819 4.819 0 0 0 4.813 4.813 4.819 4.819 0 0 0 4.813-4.813c0-1.234-.47-2.356-1.236-3.208h10.493a4.783 4.783 0 0 0-1.236 3.208 4.818 4.818 0 0 0 4.813 4.813 4.818 4.818 0 0 0 4.813-4.813c0-1.234-.47-2.356-1.236-3.208h1.504a1.337 1.337 0 1 0 0-2.674H16.073l1.49-4.14c.192.081.4.13.618.13h23.53c.697 0 1.314-.451 1.527-1.115l6.684-20.856a1.604 1.604 0 0 0-.231-1.436zM18.984 44.385c-1.18 0-2.139-.959-2.139-2.139 0-1.18.96-2.139 2.14-2.139 1.179 0 2.138.96 2.138 2.14 0 1.18-.96 2.138-2.139 2.138zm17.647 0c-1.18 0-2.139-.959-2.139-2.139 0-1.18.96-2.139 2.14-2.139 1.179 0 2.138.96 2.138 2.14 0 1.18-.96 2.138-2.139 2.138zm8.41-29.278h-8.187v-3.61h9.343l-1.157 3.61zm-2.358 7.353h-5.829v-4.145h7.158l-1.329 4.145zm-16.435 0v-4.145h7.397v4.145h-7.397zm7.397 3.209v3.476h-7.397v-3.476h7.397zm-18.079-7.354h7.473v4.145h-6.035l-1.438-4.145zm10.682-3.208v-3.61h7.397v3.61h-7.397zm-3.209-3.61v3.61h-8.586l-1.252-3.61h9.838zM18.118 25.67h4.921v3.476h-3.715l-1.206-3.476zm18.736 3.476v-3.476h4.801l-1.114 3.476h-3.687z"/></symbol></svg>